<?xml version="1.0" encoding="UTF-8" standalone="no"?>
<!-- Created with Inkscape (http://www.inkscape.org/) -->

<svg
   version="1.1"
   id="svg25"
   width="491.51999"
   height="491.51999"
   viewBox="0 0 491.51999 491.51999"
   xmlns="http://www.w3.org/2000/svg"
   xmlns:svg="http://www.w3.org/2000/svg">
  <defs
     id="defs29" />
  <g
     id="g33"
     transform="matrix(1.3333333,0,0,-1.3333333,0,491.52)">
    <g
       id="g35"
       transform="scale(0.1)">
      <path
         d="m 1843.2,0 c 1015.2,0 1843.21,828 1843.21,1843.2 0,1015.2 -828.01,1843.2 -1843.21,1843.2 C 828,3686.4 0,2858.4 0,1843.2 0,828 828,0 1843.2,0"
         style="fill:#4da1de;fill-opacity:1;fill-rule:evenodd;stroke:none"
         id="path37" />
      <path
         d="m 1843.2,3686.4 c 540.6,0 1026.88,-232.72 1364,-603.47 l -18.33,2.76 -81.94,-13.97 -79.09,-112.86 -113.58,-17.93 -16.31,-97.44 47.94,-11.62 -13.83,-62.73 -112.61,22.72 -103,-22.72 -21.59,-57.32 17.76,-121.66 60.35,-28.4 101.56,0.49 68.56,6.17 20.95,55.1 107.46,139.94 70.41,-14.61 69.38,63.28 13.01,-49.16 170.97,-116.38 -21.1,-27.9 -77.15,3.81 29.84,-41.97 47.31,-10.61 55.56,23.22 -0.83,67.57 24.39,12.46 -19.64,21.24 -114.06,63.73 -30.14,85.35 h 94.77 l 20.29,-20.43 c 73.18,-116.41 133.73,-241.54 179.7,-373.53 l -73.41,-6.94 v -69.07 h -35.57 l -38.27,27.55 -193.51,49.64 v 126.5 l -245.78,-19.4 -76.17,-41.38 h -97.73 l -47.98,5.32 -118.34,-66.7 v -124.39 l -241.86,-175.61 20.12,-75.35 h 49.3 l -12.9,-71.38 -34.44,-12.98 -1.96,-186.75 208.88,-240.21 h 91.46 l 5.28,14.95 h 163.86 l 46.96,43.83 h 92.96 l 50.8,-51.11 138.47,-14.94 -18.29,-184.79 153.8,-273.09 -80.96,-155.867 5.28,-73.242 63.65,-63.719 V 792.824 C 3025,313.73 2470.78,0 1843.2,0 1713.42,0 1586.81,13.4883 1464.61,38.9922 l 40.23,39.4844 7.23,39.1794 -59.96,17.266 3.43,36.68 85.73,13.097 130.23,62.637 43.67,80.625 136.49,176.141 -31.15,137.441 41.72,73.391 125.57,-3.957 84.76,67.082 27.35,265.421 93.31,120.05 16.83,76.79 -85.73,27.92 -56.57,93.13 -192.52,1.99 -152.84,58.29 -7.22,110.04 -51.28,89.66 -137.95,2 -79.99,126.45 -70.99,35.22 -3.79,-38.68 -128.91,-7.64 -47.35,66.08 -134.64,27.41 -111.157,-128.7 -174.383,29.4 -13.007,198.22 -127.41,22.25 51.25,96.93 -14.848,55.96 -167.156,-112.88 -105.336,13.09 -37.407,83.01 22.563,85.32 58.375,108.08 133.668,68.06 H 833.59 l -0.84,-79.16 92.824,-43.86 -7.086,135.49 66.571,68.06 135.031,89.31 9.56,62.74 134.68,141.26 142.75,79.68 -12.38,10.61 96.76,91.66 35.45,-9.28 16.3,-20.62 36.79,41 9.21,4.34 -40.36,5.81 -41.1,13.45 v 39.53 l 21.98,17.92 h 47.45 l 22.08,-9.66 19.16,-38.66 22.91,3.86 v 3.43 l 6.74,-2.45 67.1,10.12 9.56,33.36 38.38,-9.66 v -36.17 l -35.57,-24.72 5.29,-39.04 121.3,-37.63 0.48,-1.36 27.71,2.34 1.98,53.11 -96.26,43.84 -5.29,25.55 79.96,27.56 3.31,77.19 -83.76,51.12 -5.28,129.82 -114.55,-56.44 h -41.69 l 10.54,98.94 -155.64,37.04 -64.74,-49.15 v -150.06 l -115.91,-36.69 -46.47,-97.96 -50.8,-8.12 v 124.98 l -108.77,15.45 -54.59,35.67 -22.08,81.01 195,114.87 95.92,29.42 9.56,-64.74 53.12,2.48 3.79,32.84 55.69,7.67 0.87,11.62 -23.91,10.13 -5.28,34.2 68.55,5.81 41.2,43.48 2.32,2.84 h 0.49 l 12.52,13.09 143.76,18.28 63.65,-54.48 -166.7,-89.31 211.68,-50.62 27.85,71.38 h 92.48 l 32.99,62.25 -65.6,16.91 v 78.55 l -205.57,91.67 -141.78,-16.32 -79.96,-42.5 5.29,-102.27 -83.89,12.5 -12.91,56.92 80.46,73.39 -43.67,2.18 c 147.94,38.28 303.09,58.67 463,58.67 z M 1251.31,97.0898 l 7.24,89.9612 -76.64,102.754 31.14,174.14 -45.51,12.61 v 377.832 c 0,0 -127.41,96.941 -134.63,96.941 -7.14,0 -66.972,16.309 -66.972,16.309 l -13.004,71.493 -165.829,208.87 16.821,75.2 5.258,122.65 114.55,80.52 -16.296,137.48 -167.641,12.61 -130.895,150.54 -92.476,25.56 -60.317,11 7.227,54.61 -76.172,11.1 v -30.88 l -191.207,47.19 -77.137,118.68 31.664,57.42 -100.8434,147.79 c -4.7148,-19.92 -9.1445,-39.94 -13.2109,-60.1 l 23.5195,-36.54 -9.0664,-51.15 -29.7617,1.4 C 7.21875,2031.81 0,1938.35 0,1843.2 0,1032.27 523.684,343.66 1251.31,97.0898 Z M 1018.2,3491.77 c 1.2,-16.54 1.84,-31.26 1.84,-31.26 l 134.64,3.86 14.36,36.16 92.96,5.81 10.91,54.97 -54.57,9.28 3.04,8.17 c -69.77,-25.01 -137.59,-54.1 -203.18,-86.99 z m -286.645,-417.21 35.07,-72.86 56.047,17.9 17.66,69.91 -51.734,12.61 -57.043,-27.56 z m 304.305,-165 h -19.16 v 26.05 h -85.837 l -62.683,-26.05 -12.516,-31.86 48.945,-13.48 h 131.251 v 45.34 z m 59.82,-63.24 h -73.7 v -72.74 l 41.09,7.67 32.61,21.21 v 43.86 z m -36.91,17.9 45.15,11.14 -45.15,40.99 z m 20.61,-105.69 -50.27,-7.18 -6.75,-16.42 -32.993,-2.84 -11.051,-47.83 h 69.914 l 31.15,31.38 v 42.89 z m -173.407,87.79 -50.309,-54.96 -8.101,-54.97 38.281,-20.75 92.472,130.68 h -72.343 z m 296.057,-72.74 -82.78,24.57 h -5.77 v -39.62 l 19.13,-27.94 h 69.42 v 42.99 z m -64.14,58.78 26.84,-22.23 26.73,22.23 -33.48,20.76 -20.09,-20.76"
         style="fill:#2c5b80;fill-opacity:1;fill-rule:evenodd;stroke:none"
         id="path39" />
    </g>
  </g>
</svg>
